<svg width="155" height="18" viewBox="0 0 155 18" fill="none" xmlns="http://www.w3.org/2000/svg">
<path d="M0.254743 13.7812V1.97491H12.7438V3.90247H2.90515V6.67335H10.4146V8.66115H2.90515V11.8537H12.8241L13.6272 13.5604C13.6272 13.6139 13.4465 13.6675 13.0851 13.721C12.7237 13.7612 12.1012 13.7812 11.2178 13.7812H0.254743ZM15.226 13.7812V4.78594H16.8725L17.6756 5.18752C18.2378 5.08043 18.9138 4.98673 19.7036 4.90641C20.4934 4.8261 21.3969 4.78594 22.4142 4.78594H23.4182C24.0875 4.78594 24.6028 4.87964 24.9642 5.06704C25.3257 5.25445 25.58 5.4887 25.7272 5.7698C25.8879 6.05091 25.9816 6.3387 26.0083 6.63319C26.0485 6.91429 26.0686 7.15524 26.0686 7.35603V13.7812H23.619V7.31587C23.619 6.78044 23.2977 6.51272 22.6552 6.51272H18.278C18.0237 6.51272 17.8563 6.53949 17.776 6.59303C17.7091 6.63319 17.6756 6.75366 17.6756 6.95445V13.7812H15.226ZM31.8768 13.7812C30.8595 13.7812 30.1634 13.5671 29.7886 13.1387C29.4138 12.7104 29.2264 12.0679 29.2264 11.2112V6.51272H27.58V4.78594H28.4233C28.6776 4.78594 28.8583 4.74578 28.9654 4.66547C29.0859 4.58515 29.1729 4.42452 29.2264 4.18358L29.628 2.03514H31.676V4.78594H35.8524V6.51272H31.676V11.2312C31.676 11.5659 31.7564 11.7868 31.917 11.8938C32.0776 12.0009 32.3186 12.0545 32.6398 12.0545H35.4709L35.6717 13.5805C35.3906 13.6206 34.9623 13.6675 34.3867 13.721C33.8111 13.7612 33.182 13.7812 32.4993 13.7812H31.8768ZM37.4617 13.7812V4.78594H39.1082L39.8712 5.18752C40.2192 5.00011 40.594 4.85287 40.9956 4.74578C41.3972 4.6387 41.9058 4.58515 42.5216 4.58515C43.4988 4.58515 44.2885 4.69224 44.8909 4.90641C45.5066 5.12059 45.9149 5.28122 46.1157 5.3883L45.4129 7.13516C45.2523 7.05485 44.9846 6.95445 44.6098 6.83398C44.2484 6.70012 43.82 6.57965 43.3247 6.47256C42.8295 6.36547 42.2873 6.31193 41.6984 6.31193H41.4775C40.835 6.31193 40.4133 6.4391 40.2125 6.69343C40.0251 6.94776 39.9247 7.36941 39.9113 7.95839V13.7812H37.4617ZM48.3641 17.7167C47.7215 17.7167 47.1326 17.6431 46.5971 17.4958C46.0617 17.3486 45.7003 17.2147 45.5129 17.0943L46.1152 15.2872C46.3428 15.3809 46.664 15.4879 47.079 15.6084C47.5074 15.7423 47.9893 15.8092 48.5247 15.8092H48.7456C49.3613 15.8092 49.9034 15.6218 50.3719 15.247C50.8538 14.8856 51.2219 14.397 51.4763 13.7812H50.4723L46.5369 4.78594H49.3479L51.657 10.3277L52.179 11.7734H52.3798L52.9019 10.3277L55.2511 4.78594H57.9818L57.6605 6.01075C57.4062 6.5328 57.1117 7.13516 56.7771 7.81784C56.4558 8.48714 56.1212 9.1832 55.7731 9.90604C55.4251 10.6289 55.0838 11.3249 54.7491 11.9942C54.4279 12.6635 54.1401 13.2592 53.8857 13.7812C53.4975 14.5844 53.0692 15.2805 52.6007 15.8694C52.1456 16.4584 51.6168 16.9135 51.0145 17.2348C50.4255 17.5561 49.7227 17.7167 48.9062 17.7167H48.3641ZM63.8211 13.7812L63.8011 3.88239H58.5806V1.95483H71.7121V3.88239H66.4715V13.7812H63.8211ZM74.9708 13.7812C74.3015 13.7812 73.7862 13.6942 73.4248 13.5202C73.0634 13.3462 72.8023 13.1253 72.6417 12.8576C72.4945 12.5899 72.4008 12.3088 72.3606 12.0143C72.3338 11.7198 72.3204 11.4521 72.3204 11.2112V7.35603C72.3204 7.15524 72.3338 6.91429 72.3606 6.63319C72.4008 6.3387 72.4945 6.05091 72.6417 5.7698C72.8023 5.4887 73.0634 5.25445 73.4248 5.06704C73.7996 4.87964 74.3149 4.78594 74.9708 4.78594H79.2878C80.1713 4.78594 80.8606 4.87295 81.3559 5.04696C81.8646 5.2076 82.2193 5.47531 82.4201 5.85012C82.6343 6.22492 82.7413 6.72689 82.7413 7.35603V10.3277H79.2276C78.0228 10.3277 77.039 10.3009 76.276 10.2474C75.5264 10.1938 75.0244 10.1604 74.7701 10.147V11.2513C74.7567 11.7868 75.0779 12.0545 75.7338 12.0545H76.7579C77.4807 12.0545 78.1835 12.0478 78.8661 12.0344C79.5622 12.0076 80.198 11.9808 80.7736 11.9541C81.3492 11.9139 81.811 11.8805 82.1591 11.8537L82.9622 13.1588C82.9622 13.5738 81.6437 13.7812 79.0067 13.7812H74.9708ZM74.7701 8.60092H80.2917V7.31587C80.2917 7.04815 80.2583 6.86075 80.1913 6.75366C80.1378 6.64658 79.9638 6.57965 79.6693 6.55288C79.3748 6.5261 78.8728 6.51272 78.1634 6.51272H75.7338C75.0913 6.51272 74.7701 6.78044 74.7701 7.31587V8.60092ZM87.4221 13.7812C86.7528 13.7812 86.2374 13.6942 85.876 13.5202C85.5146 13.3462 85.2535 13.1253 85.0929 12.8576C84.9457 12.5899 84.852 12.3088 84.8118 12.0143C84.785 11.7198 84.7717 11.4521 84.7717 11.2112V7.35603C84.7717 7.15524 84.785 6.91429 84.8118 6.63319C84.852 6.3387 84.9457 6.05091 85.0929 5.7698C85.2535 5.4887 85.5146 5.25445 85.876 5.06704C86.2508 4.87964 86.7662 4.78594 87.4221 4.78594H90.213C91.8863 4.78594 93.0709 4.83279 93.767 4.92649C94.4764 5.00681 94.8311 5.09382 94.8311 5.18752L94.4296 6.71351C94.0548 6.68673 93.5796 6.65996 93.004 6.63319C92.4284 6.59303 91.8059 6.56626 91.1366 6.55288C90.4807 6.5261 89.8382 6.51272 89.2091 6.51272H88.1851C87.5425 6.51272 87.2213 6.78044 87.2213 7.31587V11.2513C87.2079 11.7868 87.5291 12.0545 88.1851 12.0545H89.2091C89.9319 12.0545 90.6347 12.0478 91.3174 12.0344C92.0134 12.0076 92.6492 11.9808 93.2248 11.9541C93.8004 11.9139 94.2622 11.8805 94.6103 11.8537L95.4134 13.1588C95.4134 13.5738 94.0949 13.7812 91.4579 13.7812H87.4221ZM96.8158 13.7812V0.770178H99.2654V5.18752C99.8276 5.08043 100.504 4.98673 101.293 4.90641C102.083 4.8261 102.987 4.78594 104.004 4.78594H105.008C105.677 4.78594 106.193 4.87964 106.554 5.06704C106.915 5.25445 107.17 5.4887 107.317 5.7698C107.478 6.05091 107.571 6.3387 107.598 6.63319C107.638 6.91429 107.658 7.15524 107.658 7.35603V13.7812H105.209V7.31587C105.209 6.78044 104.887 6.51272 104.245 6.51272H99.8678C99.6135 6.51272 99.4461 6.53949 99.3658 6.59303C99.2989 6.63319 99.2654 6.75366 99.2654 6.95445V13.7812H96.8158ZM114.786 13.7812V1.97491H117.437V6.87414H125.308V1.97491H127.958V13.7812H125.308V8.8017H117.437V13.7812H114.786ZM133.428 13.7812C132.772 13.7812 132.256 13.6942 131.882 13.5202C131.52 13.3462 131.259 13.1253 131.098 12.8576C130.951 12.5899 130.858 12.3088 130.817 12.0143C130.791 11.7198 130.777 11.4521 130.777 11.2112V4.78594H133.227V11.2513C133.213 11.5458 133.307 11.7533 133.508 11.8738C133.722 11.9942 133.95 12.0545 134.191 12.0545H138.166C138.461 12.0545 138.635 12.0277 138.688 11.9742C138.742 11.9206 138.769 11.7466 138.769 11.4521V4.78594H141.218V13.7812H139.572L138.809 13.3797C138.273 13.4868 137.638 13.5805 136.901 13.6608C136.178 13.7411 135.362 13.7812 134.452 13.7812H133.428ZM143.621 13.7812V1.05128H146.07V5.02689C146.646 4.95996 147.322 4.90641 148.098 4.86626C148.888 4.81271 149.785 4.78594 150.789 4.78594H151.813C152.482 4.78594 152.997 4.87295 153.359 5.04696C153.72 5.22098 153.975 5.44185 154.122 5.70957C154.282 5.97728 154.376 6.25839 154.403 6.55288C154.443 6.84737 154.463 7.11508 154.463 7.35603V11.2112C154.463 11.4119 154.443 11.6596 154.403 11.9541C154.376 12.2352 154.282 12.5163 154.122 12.7974C153.975 13.0785 153.72 13.3127 153.359 13.5001C152.997 13.6875 152.482 13.7812 151.813 13.7812H150.789C149.678 13.7812 148.707 13.7545 147.877 13.7009C147.047 13.634 146.358 13.5671 145.809 13.5001L145.267 13.7812H143.621ZM146.693 12.0545H151.05C151.692 12.0545 152.014 11.7868 152.014 11.2513V7.31587C152.027 7.02138 151.967 6.8139 151.833 6.69343C151.699 6.57295 151.438 6.51272 151.05 6.51272H150.046C149.189 6.51272 148.426 6.5328 147.757 6.57295C147.101 6.59973 146.539 6.63319 146.07 6.67335V11.432C146.07 11.7131 146.097 11.8871 146.151 11.9541C146.217 12.021 146.398 12.0545 146.693 12.0545Z" fill="black"/>
</svg>
