<svg width="156" height="18" viewBox="0 0 156 18" fill="none" xmlns="http://www.w3.org/2000/svg">
<path d="M0.879743 13.7812V1.97491H13.3688V3.90247H3.53015V6.67335H11.0396V8.66115H3.53015V11.8537H13.4491L14.2522 13.5604C14.2522 13.6139 14.0715 13.6675 13.7101 13.721C13.3487 13.7612 12.7262 13.7812 11.8428 13.7812H0.879743ZM15.851 13.7812V4.78594H17.4975L18.3006 5.18752C18.8628 5.08043 19.5388 4.98673 20.3286 4.90641C21.1184 4.8261 22.0219 4.78594 23.0392 4.78594H24.0432C24.7125 4.78594 25.2278 4.87964 25.5892 5.06704C25.9507 5.25445 26.205 5.4887 26.3522 5.7698C26.5129 6.05091 26.6066 6.3387 26.6333 6.63319C26.6735 6.91429 26.6936 7.15524 26.6936 7.35603V13.7812H24.244V7.31587C24.244 6.78044 23.9227 6.51272 23.2802 6.51272H18.903C18.6487 6.51272 18.4813 6.53949 18.401 6.59303C18.3341 6.63319 18.3006 6.75366 18.3006 6.95445V13.7812H15.851ZM32.5018 13.7812C31.4845 13.7812 30.7884 13.5671 30.4136 13.1387C30.0388 12.7104 29.8514 12.0679 29.8514 11.2112V6.51272H28.205V4.78594H29.0483C29.3026 4.78594 29.4833 4.74578 29.5904 4.66547C29.7109 4.58515 29.7979 4.42452 29.8514 4.18358L30.253 2.03514H32.301V4.78594H36.4774V6.51272H32.301V11.2312C32.301 11.5659 32.3814 11.7868 32.542 11.8938C32.7026 12.0009 32.9436 12.0545 33.2648 12.0545H36.0959L36.2967 13.5805C36.0156 13.6206 35.5873 13.6675 35.0117 13.721C34.4361 13.7612 33.807 13.7812 33.1243 13.7812H32.5018ZM38.0867 13.7812V4.78594H39.7332L40.4962 5.18752C40.8442 5.00011 41.219 4.85287 41.6206 4.74578C42.0222 4.6387 42.5308 4.58515 43.1466 4.58515C44.1238 4.58515 44.9135 4.69224 45.5159 4.90641C46.1316 5.12059 46.5399 5.28122 46.7407 5.3883L46.0379 7.13516C45.8773 7.05485 45.6096 6.95445 45.2348 6.83398C44.8734 6.70012 44.445 6.57965 43.9497 6.47256C43.4545 6.36547 42.9123 6.31193 42.3234 6.31193H42.1025C41.46 6.31193 41.0383 6.4391 40.8375 6.69343C40.6501 6.94776 40.5497 7.36941 40.5363 7.95839V13.7812H38.0867ZM48.9891 17.7167C48.3465 17.7167 47.7576 17.6431 47.2221 17.4958C46.6867 17.3486 46.3253 17.2147 46.1379 17.0943L46.7402 15.2872C46.9678 15.3809 47.289 15.4879 47.704 15.6084C48.1324 15.7423 48.6143 15.8092 49.1497 15.8092H49.3706C49.9863 15.8092 50.5284 15.6218 50.9969 15.247C51.4788 14.8856 51.8469 14.397 52.1013 13.7812H51.0973L47.1619 4.78594H49.9729L52.282 10.3277L52.804 11.7734H53.0048L53.5269 10.3277L55.8761 4.78594H58.6068L58.2855 6.01075C58.0312 6.5328 57.7367 7.13516 57.4021 7.81784C57.0808 8.48714 56.7462 9.1832 56.3981 9.90604C56.0501 10.6289 55.7088 11.3249 55.3741 11.9942C55.0529 12.6635 54.7651 13.2592 54.5107 13.7812C54.1225 14.5844 53.6942 15.2805 53.2257 15.8694C52.7706 16.4584 52.2418 16.9135 51.6395 17.2348C51.0505 17.5561 50.3477 17.7167 49.5312 17.7167H48.9891ZM64.4461 13.7812L64.4261 3.88239H59.2056V1.95483H72.3371V3.88239H67.0965V13.7812H64.4461ZM75.5958 13.7812C74.9265 13.7812 74.4112 13.6942 74.0498 13.5202C73.6884 13.3462 73.4273 13.1253 73.2667 12.8576C73.1195 12.5899 73.0258 12.3088 72.9856 12.0143C72.9588 11.7198 72.9454 11.4521 72.9454 11.2112V7.35603C72.9454 7.15524 72.9588 6.91429 72.9856 6.63319C73.0258 6.3387 73.1195 6.05091 73.2667 5.7698C73.4273 5.4887 73.6884 5.25445 74.0498 5.06704C74.4246 4.87964 74.9399 4.78594 75.5958 4.78594H79.9128C80.7963 4.78594 81.4856 4.87295 81.9809 5.04696C82.4896 5.2076 82.8443 5.47531 83.0451 5.85012C83.2593 6.22492 83.3663 6.72689 83.3663 7.35603V10.3277H79.8526C78.6478 10.3277 77.664 10.3009 76.901 10.2474C76.1514 10.1938 75.6494 10.1604 75.3951 10.147V11.2513C75.3817 11.7868 75.7029 12.0545 76.3588 12.0545H77.3829C78.1057 12.0545 78.8085 12.0478 79.4911 12.0344C80.1872 12.0076 80.823 11.9808 81.3986 11.9541C81.9742 11.9139 82.436 11.8805 82.7841 11.8537L83.5872 13.1588C83.5872 13.5738 82.2687 13.7812 79.6317 13.7812H75.5958ZM75.3951 8.60092H80.9167V7.31587C80.9167 7.04815 80.8833 6.86075 80.8163 6.75366C80.7628 6.64658 80.5888 6.57965 80.2943 6.55288C79.9998 6.5261 79.4978 6.51272 78.7884 6.51272H76.3588C75.7163 6.51272 75.3951 6.78044 75.3951 7.31587V8.60092ZM88.0471 13.7812C87.3778 13.7812 86.8624 13.6942 86.501 13.5202C86.1396 13.3462 85.8785 13.1253 85.7179 12.8576C85.5707 12.5899 85.477 12.3088 85.4368 12.0143C85.41 11.7198 85.3967 11.4521 85.3967 11.2112V7.35603C85.3967 7.15524 85.41 6.91429 85.4368 6.63319C85.477 6.3387 85.5707 6.05091 85.7179 5.7698C85.8785 5.4887 86.1396 5.25445 86.501 5.06704C86.8758 4.87964 87.3912 4.78594 88.0471 4.78594H90.838C92.5113 4.78594 93.6959 4.83279 94.392 4.92649C95.1014 5.00681 95.4561 5.09382 95.4561 5.18752L95.0546 6.71351C94.6798 6.68673 94.2046 6.65996 93.629 6.63319C93.0534 6.59303 92.4309 6.56626 91.7616 6.55288C91.1057 6.5261 90.4632 6.51272 89.8341 6.51272H88.8101C88.1675 6.51272 87.8463 6.78044 87.8463 7.31587V11.2513C87.8329 11.7868 88.1541 12.0545 88.8101 12.0545H89.8341C90.5569 12.0545 91.2597 12.0478 91.9424 12.0344C92.6384 12.0076 93.2742 11.9808 93.8498 11.9541C94.4254 11.9139 94.8872 11.8805 95.2353 11.8537L96.0384 13.1588C96.0384 13.5738 94.7199 13.7812 92.0829 13.7812H88.0471ZM97.4408 13.7812V0.770178H99.8904V5.18752C100.453 5.08043 101.129 4.98673 101.918 4.90641C102.708 4.8261 103.612 4.78594 104.629 4.78594H105.633C106.302 4.78594 106.818 4.87964 107.179 5.06704C107.54 5.25445 107.795 5.4887 107.942 5.7698C108.103 6.05091 108.196 6.3387 108.223 6.63319C108.263 6.91429 108.283 7.15524 108.283 7.35603V13.7812H105.834V7.31587C105.834 6.78044 105.512 6.51272 104.87 6.51272H100.493C100.238 6.51272 100.071 6.53949 99.9908 6.59303C99.9239 6.63319 99.8904 6.75366 99.8904 6.95445V13.7812H97.4408ZM115.411 13.7812V1.97491H118.062V6.87414H125.933V1.97491H128.583V13.7812H125.933V8.8017H118.062V13.7812H115.411ZM134.053 13.7812C133.397 13.7812 132.881 13.6942 132.507 13.5202C132.145 13.3462 131.884 13.1253 131.723 12.8576C131.576 12.5899 131.483 12.3088 131.442 12.0143C131.416 11.7198 131.402 11.4521 131.402 11.2112V4.78594H133.852V11.2513C133.838 11.5458 133.932 11.7533 134.133 11.8738C134.347 11.9942 134.575 12.0545 134.816 12.0545H138.791C139.086 12.0545 139.26 12.0277 139.313 11.9742C139.367 11.9206 139.394 11.7466 139.394 11.4521V4.78594H141.843V13.7812H140.197L139.434 13.3797C138.898 13.4868 138.263 13.5805 137.526 13.6608C136.803 13.7411 135.987 13.7812 135.077 13.7812H134.053ZM144.246 13.7812V1.05128H146.695V5.02689C147.271 4.95996 147.947 4.90641 148.723 4.86626C149.513 4.81271 150.41 4.78594 151.414 4.78594H152.438C153.107 4.78594 153.622 4.87295 153.984 5.04696C154.345 5.22098 154.6 5.44185 154.747 5.70957C154.907 5.97728 155.001 6.25839 155.028 6.55288C155.068 6.84737 155.088 7.11508 155.088 7.35603V11.2112C155.088 11.4119 155.068 11.6596 155.028 11.9541C155.001 12.2352 154.907 12.5163 154.747 12.7974C154.6 13.0785 154.345 13.3127 153.984 13.5001C153.622 13.6875 153.107 13.7812 152.438 13.7812H151.414C150.303 13.7812 149.332 13.7545 148.502 13.7009C147.672 13.634 146.983 13.5671 146.434 13.5001L145.892 13.7812H144.246ZM147.318 12.0545H151.675C152.317 12.0545 152.639 11.7868 152.639 11.2513V7.31587C152.652 7.02138 152.592 6.8139 152.458 6.69343C152.324 6.57295 152.063 6.51272 151.675 6.51272H150.671C149.814 6.51272 149.051 6.5328 148.382 6.57295C147.726 6.59973 147.164 6.63319 146.695 6.67335V11.432C146.695 11.7131 146.722 11.8871 146.776 11.9541C146.842 12.021 147.023 12.0545 147.318 12.0545Z" fill="#F8F8FA"/>
</svg>
